PathFileType	4	(x/y/z)	S04_PSF_T07.trc
DataRate	CameraRate	NumFrames	NumMarkers	Units	OrigDataRate	OrigDataStartFrame	OrigNumFrames
240	240	7	51	mm	240	321	427
Frame#	Time	Sternum			R.Acromium			L.Acromium			Top.Head			R.ASIS			L.ASIS			R.PSIS			L.PSIS			R.Great.Tro			L.Great.Tro			R.Iliac.Crest			L.Iliac.Crest			V.Sacral			R.Thigh.Upper.Post			R.Thigh.Lower.Ant			R.Thigh.Lower.Post			R.Thigh.Upper.Ant			R.Knee.Lat			R.Knee.Med			R.Shank.Upper.Post			R.Shank.Lower.Ant			R.Shank.Lower.Post			R.Shank.Upper.Ant			R.Ankle.Lat			R.Ankle.Med			R.Heel.Upper			R.Heel.Med			R.Heel.Lat			R.Toe.Lat			R.Toe.Med			R.Toe.Tip			L.Thigh.Upper.Post			L.Thigh.Lower.Ant			L.Thigh.Lower.Post			L.Thigh.Upper.Ant			L.Knee.Lat			L.Knee.Med			L.Shank.Upper.Post			L.Shank.Lower.Ant			L.Shank.Lower.Post			L.Shank.Upper.Ant			L.Ankle.Lat			L.Ankle.Med			L.Heel.Upper			L.Heel.Med			L.Heel.Lat			L.Toe.Lat			L.Toe.Med			L.Toe.Tip			Cervical.Spine			Back			
		X1	Y1	Z1	X2	Y2	Z2	X3	Y3	Z3	X4	Y4	Z4	X5	Y5	Z5	X6	Y6	Z6	X7	Y7	Z7	X8	Y8	Z8	X9	Y9	Z9	X10	Y10	Z10	X11	Y11	Z11	X12	Y12	Z12	X13	Y13	Z13	X14	Y14	Z14	X15	Y15	Z15	X16	Y16	Z16	X17	Y17	Z17	X18	Y18	Z18	X19	Y19	Z19	X20	Y20	Z20	X21	Y21	Z21	X22	Y22	Z22	X23	Y23	Z23	X24	Y24	Z24	X25	Y25	Z25	X26	Y26	Z26	X27	Y27	Z27	X28	Y28	Z28	X29	Y29	Z29	X30	Y30	Z30	X31	Y31	Z31	X32	Y32	Z32	X33	Y33	Z33	X34	Y34	Z34	X35	Y35	Z35	X36	Y36	Z36	X37	Y37	Z37	X38	Y38	Z38	X39	Y39	Z39	X40	Y40	Z40	X41	Y41	Z41	X42	Y42	Z42	X43	Y43	Z43	X44	Y44	Z44	X45	Y45	Z45	X46	Y46	Z46	X47	Y47	Z47	X48	Y48	Z48	X49	Y49	Z49	X50	Y50	Z50	X51	Y51	Z51	

321	1.3333	325.3	1270.2	275.08	206.59	1498.1	453.81	180.71	1477.5	103.46	221.19	1822.5	260.12	288.4	977.55	422.46	304.86	1007.4	174.5	83.874	1019.3	310.83	94.21	1028.2	229.07	193.46	895.19	474.57	200.99	921.17	99.435	204.21	1076.2	458.44	201.88	1083.9	124.67	67.779	982.29	266.6	204.46	635.25	467.08	287.45	555.4	445.9	209.75	545.12	453.57	288.98	665.38	463.18	223.4	478.24	448.03	219.98	476.38	316.93	11.7	389.24	441.06	-7.3288	287.07	402.92	-43.333	346.31	427.59	46.254	332.8	425.75	-128.34	270.05	407.91	-97.462	254.12	321.51	-182.14	303.74	345.7	-198.68	280.63	312.36	-211.75	283.58	377.02	-137.48	135.3	434.2	-99.334	106.07	323.21	-55.63	63.853	376.69	242.46	680.83	116.28	343.47	608.86	131.58	271.69	598.41	135.31	310.11	689.71	110.21	333.8	515.78	150.57	329.67	510.07	273.99	258	330.91	151.26	331.53	248.36	161.86	267.14	254.17	162.21	322.69	323.94	150.76	307.36	98.591	183.03	313.91	110.78	275.4	235.37	69.94	229.46	242.1	46.375	264.51	238.6	41.371	202.63	422.56	42.442	163.95	453.82	51.744	279.65	510.45	63.367	230.05	143.63	1542.5	285.18	64.668	1283.9	275.74
322	1.3375	330.46	1271	275.18	211.41	1499	453.62	186.33	1478.3	103.2	226.57	1823.3	259.92	293.79	978.65	422.15	309.95	1008.2	174.15	89.082	1020.1	310.84	99.414	1029.1	229.12	199.22	896.21	474.54	205.74	921.88	99.359	209.38	1077.2	458.23	207.1	1084.7	124.48	72.95	983.17	266.62	213.29	636.27	467.15	297.09	557.34	445.87	219.53	546.19	453.62	297.39	667.31	463.12	233.92	479.6	448.03	230.57	477.69	316.86	22.588	390.1	440.72	3.9452	287.74	402.94	-32.272	346.95	427.29	57.322	333.7	425.72	-117.04	270.46	407.64	-85.968	254.21	321.39	-171.13	303.29	345.07	-187.41	279.73	311.89	-200.55	283.12	376.54	-125.04	136.07	435.07	-86.705	106.1	324.33	-42.66	64.75	378.16	245.77	681.36	116.35	346.33	608.73	131.53	274.49	598.77	135.25	313.54	689.83	110.16	335.93	515.67	150.56	331.77	509.97	273.94	259.16	331.14	151.46	332.35	248.27	161.94	267.99	254.36	162.42	323.81	323.89	150.86	307.48	98.7	183.24	314.08	110.77	275.59	235.41	70.027	229.58	242.13	46.407	264.57	238.65	41.519	202.68	422.59	42.448	163.91	453.91	51.436	279.68	510.52	62.998	230.06	148.86	1543.4	284.84	69.85	1284.8	275.22
323	1.3417	335.61	1271.9	275.29	216.22	1499.9	453.44	191.94	1479.2	102.95	231.94	1824.2	259.74	299.16	979.77	421.85	315.01	1008.9	173.81	94.286	1021	310.88	104.61	1029.9	229.21	204.97	897.26	474.53	210.45	922.59	99.295	214.55	1078.2	458.05	212.29	1085.6	124.31	78.112	984.07	266.68	222.07	637.37	467.24	306.65	559.35	445.82	229.27	547.35	453.69	305.75	669.31	463.06	244.38	481.02	448.02	241.08	479.1	316.8	33.486	390.82	440.38	15.34	288.26	402.98	-21.154	347.39	427	68.458	334.49	425.69	-105.59	270.53	407.38	-74.316	254.04	321.29	-160.01	302.48	344.49	-176	278.48	311.46	-189.22	282.26	376.1	-112.31	136.51	435.89	-73.758	105.91	325.36	-29.325	65.472	379.53	249.01	681.9	116.43	349.12	608.59	131.48	277.22	599.15	135.17	316.9	689.95	110.12	337.97	515.57	150.55	333.78	509.87	273.88	260.26	331.38	151.65	333.12	248.2	162.01	268.8	254.55	162.62	324.88	323.85	150.96	307.6	98.808	183.44	314.24	110.77	275.78	235.45	70.117	229.7	242.16	46.442	264.62	238.69	41.669	202.74	422.63	42.454	163.87	453.99	51.146	279.71	510.59	62.649	230.06	154.08	1544.3	284.52	75.023	1285.7	274.71
324	1.3458	340.74	1272.8	275.4	221.01	1500.8	453.25	197.54	1480	102.7	237.3	1825.1	259.59	304.52	980.9	421.55	320.04	1009.6	173.46	99.485	1022	310.94	109.8	1030.8	229.32	210.72	898.34	474.53	215.12	923.31	99.242	219.71	1079.2	457.87	217.47	1086.5	124.15	83.266	984.99	266.76	230.82	638.53	467.36	316.15	561.44	445.75	238.96	548.58	453.78	314.07	671.36	463.01	254.77	482.5	448	251.5	480.58	316.75	44.39	391.39	440.04	26.85	288.62	403.04	-9.9802	347.63	426.71	79.657	335.16	425.67	-94.008	270.28	407.13	-62.513	253.64	321.19	-148.78	301.32	343.96	-164.44	276.89	311.07	-177.75	281	375.7	-99.297	136.62	436.65	-60.507	105.51	326.32	-15.641	66.017	380.79	252.18	682.43	116.52	351.85	608.45	131.44	279.88	599.53	135.09	320.19	690.07	110.09	339.93	515.48	150.52	335.7	509.77	273.83	261.3	331.62	151.83	333.85	248.14	162.07	269.56	254.74	162.81	325.9	323.82	151.06	307.72	98.917	183.64	314.4	110.78	275.97	235.5	70.211	229.81	242.19	46.479	264.67	238.74	41.82	202.79	422.66	42.459	163.84	454.08	50.871	279.73	510.66	62.318	230.06	159.29	1545.2	284.2	80.188	1286.6	274.21
325	1.35	345.86	1273.7	275.5	225.78	1501.7	453.07	203.13	1480.9	102.46	242.67	1826	259.45	309.86	982.05	421.25	325.04	1010.3	173.12	104.68	1022.9	311.02	114.99	1031.7	229.46	216.45	899.45	474.56	219.75	924.04	99.198	224.86	1080.2	457.7	222.61	1087.3	123.99	88.412	985.92	266.87	239.53	639.75	467.5	325.57	563.58	445.66	248.6	549.88	453.89	322.34	673.46	462.95	265.1	484.04	447.99	261.83	482.13	316.71	55.3	391.81	439.72	38.471	288.82	403.12	1.2464	347.66	426.44	90.915	335.73	425.66	-82.283	269.71	406.89	-50.565	252.99	321.11	-137.43	299.81	343.48	-152.75	274.98	310.72	-166.14	279.36	375.34	-86.008	136.4	437.35	-46.964	104.91	327.2	-1.6254	66.385	381.93	255.29	682.98	116.62	354.51	608.31	131.4	282.47	599.92	135.01	323.42	690.18	110.06	341.81	515.39	150.5	337.55	509.67	273.77	262.29	331.85	152.01	334.53	248.08	162.12	270.28	254.93	163	326.86	323.8	151.15	307.83	99.027	183.83	314.54	110.79	276.15	235.54	70.308	229.92	242.21	46.519	264.72	238.79	41.972	202.85	422.69	42.462	163.81	454.16	50.61	279.75	510.73	62.003	230.06	164.48	1546.1	283.88	85.345	1287.6	273.72
326	1.3542	350.97	1274.6	275.61	230.54	1502.6	452.89	208.71	1481.8	102.23	248.03	1826.8	259.33	315.19	983.2	420.96	330.01	1011	172.78	109.87	1023.9	311.12	120.17	1032.5	229.62	222.18	900.58	474.6	224.34	924.76	99.164	230.01	1081.3	457.55	227.73	1088.2	123.85	93.551	986.85	267	248.2	641.02	467.67	334.92	565.78	445.57	258.18	551.24	454.02	330.57	675.6	462.9	275.37	485.63	447.97	272.05	483.75	316.69	66.215	392.07	439.41	50.198	288.86	403.22	12.524	347.49	426.18	102.23	336.17	425.66	-70.421	268.82	406.69	-38.477	252.12	321.04	-125.98	297.97	343.07	-140.91	272.75	310.42	-154.4	277.34	375.03	-72.454	135.86	437.99	-33.14	104.12	327.99	12.707	66.581	382.95	258.34	683.53	116.73	357.11	608.16	131.36	285	600.32	134.93	326.58	690.3	110.04	343.61	515.3	150.46	339.33	509.56	273.71	263.23	332.09	152.18	335.18	248.04	162.16	270.97	255.13	163.19	327.78	323.78	151.23	307.94	99.139	184.02	314.68	110.81	276.32	235.58	70.409	230.03	242.24	46.562	264.77	238.83	42.125	202.9	422.73	42.465	163.78	454.24	50.361	279.77	510.79	61.702	230.06	169.67	1547	283.57	90.497	1288.5	273.23
327	1.3583	356.06	1275.5	275.72	235.29	1503.6	452.71	214.28	1482.6	102	253.38	1827.7	259.22	320.51	984.35	420.66	334.96	1011.7	172.43	115.06	1024.8	311.24	125.34	1033.4	229.81	227.91	901.73	474.66	228.89	925.48	99.138	235.15	1082.3	457.41	232.81	1089.1	123.71	98.682	987.79	267.16	256.83	642.34	467.86	344.19	568.02	445.45	267.7	552.65	454.17	338.75	677.77	462.86	285.56	487.26	447.95	282.18	485.42	316.67	77.133	392.19	439.11	62.026	288.76	403.34	23.85	347.12	425.94	113.6	336.51	425.67	-58.424	267.64	406.5	-26.254	251.03	320.98	-114.41	295.82	342.72	-128.94	270.22	310.17	-142.53	274.96	374.78	-58.643	135.02	438.57	-19.047	103.14	328.7	27.342	66.611	383.86	261.34	684.08	116.84	359.65	608	131.32	287.47	600.72	134.86	329.68	690.4	110.03	345.34	515.22	150.43	341.04	509.45	273.66	264.11	332.34	152.35	335.78	248.01	162.2	271.61	255.32	163.37	328.65	323.78	151.31	308.05	99.252	184.21	314.82	110.83	276.49	235.62	70.514	230.14	242.26	46.608	264.82	238.88	42.279	202.96	422.76	42.466	163.75	454.33	50.125	279.79	510.86	61.416	230.05	174.84	1547.9	283.26	95.643	1289.4	272.75
